<svg xmlns="http://www.w3.org/2000/svg" width="57" height="62" fill="none" viewBox="0 0 57 62"><path fill="#0f0e08" d="M23.112 0v25.2h-4.788L5.76 9.9v15.3H0V0h4.824l12.528 15.3V0ZM45.67 19.8h-11.7l-2.232 5.4h-5.976L36.994 0h5.76l11.268 25.2h-6.12Zm-1.836-4.428-3.996-9.648-3.996 9.648ZM22.932 61.2l-.036-15.12-7.416 12.456h-2.628l-7.38-12.132V61.2H0V36h4.824l9.432 15.66L23.544 36h4.788l.072 25.2Zm22.647.432q-5.4 0-8.424-2.988-2.988-2.988-2.988-8.532V36h5.832v13.896q0 6.768 5.616 6.768 2.736 0 4.176-1.62 1.44-1.656 1.44-5.148V36h5.76v14.112q0 5.544-3.024 8.532-2.988 2.988-8.388 2.988"/></svg>