<svg width="57" height="62" viewBox="0 0 57 62" fill="none" xmlns="http://www.w3.org/2000/svg">
<path d="M23.1122 2.86102e-06V25.2H18.3242L5.76021 9.9V25.2H0.000207186V2.86102e-06H4.82421L17.3522 15.3V2.86102e-06H23.1122ZM45.6704 19.8H33.9704L31.7384 25.2H25.7624L36.9944 2.86102e-06H42.7544L54.0224 25.2H47.9024L45.6704 19.8ZM43.8344 15.372L39.8384 5.724L35.8424 15.372H43.8344ZM22.9322 61.2L22.8962 46.08L15.4802 58.536H12.8522L5.47221 46.404V61.2H0.000207186V36H4.82421L14.2562 51.66L23.5442 36H28.3322L28.4042 61.2H22.9322ZM45.579 61.632C41.979 61.632 39.171 60.636 37.155 58.644C35.163 56.652 34.167 53.808 34.167 50.112V36H39.999V49.896C39.999 54.408 41.871 56.664 45.615 56.664C47.439 56.664 48.831 56.124 49.791 55.044C50.751 53.94 51.231 52.224 51.231 49.896V36H56.991V50.112C56.991 53.808 55.983 56.652 53.967 58.644C51.975 60.636 49.179 61.632 45.579 61.632Z" fill="#0F0E08"/>
</svg>
